<svg width="26" height="26" viewBox="0 0 26 26" fill="none" xmlns="http://www.w3.org/2000/svg">
<g clip-path="url(#clip0_1_3053)">
<path d="M13 17.29C12.9025 17.29 12.805 17.2575 12.7238 17.2088L0.27625 10.0425C0.11375 9.92875 0 9.75 0 9.555C0 9.36 0.11375 9.165 0.27625 9.0675L12.7238 1.99875C12.9025 1.90125 13.1138 1.90125 13.2762 1.99875L25.7237 9.05125C25.9025 9.14875 26 9.34375 26 9.53875C26 9.73375 25.8862 9.92875 25.7237 10.0263L13.2762 17.1925C13.195 17.2413 13.0975 17.2738 13 17.2738V17.29ZM1.69 9.555L13 16.0713L24.31 9.555L13 3.13625L1.69 9.555Z" fill="#717274"/>
<path d="M13 20.4263C12.9025 20.4263 12.805 20.41 12.7238 20.3613L0.27629 13.2925C3.98704e-05 13.1463 -0.0812102 12.805 0.0650399 12.5288C0.21129 12.2525 0.55254 12.1713 0.82879 12.3175L13 19.2238L25.155 12.3175C25.4313 12.1713 25.7725 12.2525 25.9188 12.5288C26.065 12.805 25.9838 13.1463 25.7075 13.2925L13.26 20.3613C13.1788 20.41 13.0813 20.4263 12.9838 20.4263H13Z" fill="#717274"/>
<path d="M13 23.5625C12.9025 23.5625 12.805 23.5462 12.7238 23.4975L0.27629 16.4287C3.98704e-05 16.2825 -0.0812102 15.9412 0.0650399 15.665C0.21129 15.3887 0.55254 15.3075 0.82879 15.4537L13 22.36L25.155 15.4537C25.4313 15.3075 25.7725 15.3887 25.9188 15.665C26.065 15.9412 25.9838 16.2825 25.7075 16.4287L13.26 23.4812C13.1788 23.53 13.0813 23.5462 12.9838 23.5462L13 23.5625Z" fill="#717274"/>
</g>
<defs>
<clipPath id="clip0_1_3053">
<rect width="26" height="26" fill="white"/>
</clipPath>
</defs>
</svg>
