<svg width="26" height="26" viewBox="0 0 26 26" fill="none" xmlns="http://www.w3.org/2000/svg">
<g clip-path="url(#clip0_1_3052)">
<path d="M19.63 22.23H6.46748C6.20748 22.23 5.97998 22.0188 5.97998 21.7425V3.7375C5.97998 3.4775 6.19123 3.25 6.46748 3.25H19.63C19.89 3.25 20.1175 3.46125 20.1175 3.7375V21.7588C20.1175 22.0188 19.9062 22.2463 19.63 22.2463V22.23ZM6.95498 21.2713H19.1587V4.225H6.95498V21.2713Z" fill="#717274"/>
<path d="M3.34749 21.2875C3.08749 21.2875 2.85999 21.0763 2.85999 20.8V4.68001C2.85999 4.42001 3.07124 4.1925 3.34749 4.1925C3.62374 4.1925 3.83499 4.40376 3.83499 4.68001V20.8C3.83499 21.06 3.62374 21.2875 3.34749 21.2875Z" fill="#717274"/>
<path d="M0.4875 19.37C0.2275 19.37 0 19.1588 0 18.8825V6.59752C0 6.33752 0.21125 6.11002 0.4875 6.11002C0.76375 6.11002 0.975 6.32127 0.975 6.59752V18.8825C0.975 19.1425 0.76375 19.37 0.4875 19.37Z" fill="#717274"/>
<path d="M22.6525 21.2875C22.3925 21.2875 22.165 21.0763 22.165 20.8V4.68001C22.165 4.42001 22.3763 4.1925 22.6525 4.1925C22.9288 4.1925 23.14 4.40376 23.14 4.68001V20.8C23.14 21.06 22.9288 21.2875 22.6525 21.2875Z" fill="#717274"/>
<path d="M25.5125 19.37C25.2525 19.37 25.025 19.1588 25.025 18.8825V6.59752C25.025 6.33752 25.2363 6.11002 25.5125 6.11002C25.7888 6.11002 26 6.32127 26 6.59752V18.8825C26 19.1425 25.7888 19.37 25.5125 19.37Z" fill="#717274"/>
</g>
<defs>
<clipPath id="clip0_1_3052">
<rect width="26" height="26" fill="white"/>
</clipPath>
</defs>
</svg>
